# xmcd
#
# Track frame offsets: 
#        150
#        29820
#        50135
#        87865
#        111945
#        132485
#        158285
#        177637
#        196245
#
# Disc length: 2993 seconds
#
# Revision: 8
# Processed by: cddbd v1.5.2PL0 Copyright (c) Steve Scherf et al.
# Submitted via: ExactAudioCopy v1.3
#
DISCID=7d0baf09
DTITLE=Bob Dylan - Street Legal
DYEAR=1978
DGENRE=Rhythm'n'Blues and Rock
TTITLE0=Changing Of The Guards
TTITLE1=New Pony
TTITLE2=No Time To Think
TTITLE3=Baby, Stop Crying
TTITLE4=Is Your Love In Vain?
TTITLE5=Señor (Tales Of Yankee Power)
TTITLE6=True Love Tends To Forget
TTITLE7=We Better Talk This Over
TTITLE8=Where Are You Tonight (Journey Through Dark Heat)
EXTD=All songs written by Bob Dylan\n\nElectric rhythm guitar and lead v
EXTD=ocals: Bob Dylan\nDrums: Ian Wallace\nBass guitar: Jerry Scheff\n
EXTD=Lead guitar: Billy Cross\nKeyboards: Alan Pasqua\nPercussion: Bob
EXTD=bye Hall\nTenor and soprano saxophone: Steve Douglas\nRhythm guit
EXTD=ar (background vocals): Steven Soles\nViolin and mandolin: David Ma
EXTD=nsfield\nBackground vocals: Carolyn Dennis, Jo Ann Harris, Helena
EXTD=Springs\nTrumpet (Is Your Love In Vain?): Steve Madaio\n\nProduc
EXTD=ed by Don DeVito YEAR: 1978
EXTT0=
EXTT1=
EXTT2=
EXTT3=
EXTT4=
EXTT5=
EXTT6=
EXTT7=
EXTT8=
PLAYORDER=
